<svg width="21" height="21" viewBox="0 0 21 21" fill="none" xmlns="http://www.w3.org/2000/svg">
<path d="M8.01475 10.1675C7.9885 10.1675 7.971 10.1675 7.94475 10.1675C7.901 10.1587 7.83975 10.1587 7.78725 10.1675C5.24975 10.0887 3.3335 8.09375 3.3335 5.635C3.3335 3.1325 5.37225 1.09375 7.87475 1.09375C10.3772 1.09375 12.416 3.1325 12.416 5.635C12.4072 8.09375 10.4822 10.0887 8.041 10.1675C8.03225 10.1675 8.0235 10.1675 8.01475 10.1675ZM7.87475 2.40625C6.0985 2.40625 4.646 3.85875 4.646 5.635C4.646 7.385 6.011 8.79375 7.75225 8.855C7.80475 8.84625 7.9185 8.84625 8.03225 8.855C9.74725 8.77625 11.0947 7.3675 11.1035 5.635C11.1035 3.85875 9.651 2.40625 7.87475 2.40625Z" fill="white"/>
<path d="M14.4721 10.2812C14.4458 10.2812 14.4196 10.2812 14.3933 10.2725C14.0346 10.3075 13.6671 10.0538 13.6321 9.695C13.5971 9.33625 13.8158 9.0125 14.1746 8.96875C14.2796 8.96 14.3933 8.96 14.4896 8.96C15.7671 8.89 16.7646 7.84 16.7646 6.55375C16.7646 5.22375 15.6883 4.1475 14.3583 4.1475C13.9996 4.15625 13.7021 3.85875 13.7021 3.5C13.7021 3.14125 13.9996 2.84375 14.3583 2.84375C16.4058 2.84375 18.0771 4.515 18.0771 6.5625C18.0771 8.575 16.5021 10.2025 14.4983 10.2812C14.4896 10.2812 14.4808 10.2812 14.4721 10.2812Z" fill="white"/>
<path d="M8.02341 19.7313C6.30841 19.7313 4.58466 19.2938 3.28091 18.4188C2.06466 17.6138 1.39966 16.5113 1.39966 15.3125C1.39966 14.1138 2.06466 13.0025 3.28091 12.1888C5.90591 10.4475 10.1584 10.4475 12.7659 12.1888C13.9734 12.9938 14.6472 14.0963 14.6472 15.295C14.6472 16.4938 13.9822 17.605 12.7659 18.4188C11.4534 19.2938 9.73841 19.7313 8.02341 19.7313ZM4.00716 13.2913C3.16716 13.8513 2.71216 14.5688 2.71216 15.3213C2.71216 16.065 3.17591 16.7825 4.00716 17.3338C6.18591 18.795 9.86091 18.795 12.0397 17.3338C12.8797 16.7738 13.3347 16.0563 13.3347 15.3038C13.3347 14.56 12.8709 13.8425 12.0397 13.2913C9.86091 11.8387 6.18591 11.8387 4.00716 13.2913Z" fill="white"/>
<path d="M16.0472 18.1563C15.7409 18.1563 15.4697 17.9463 15.4084 17.6313C15.3384 17.2725 15.5659 16.9313 15.9159 16.8525C16.4672 16.7388 16.9747 16.52 17.3684 16.2138C17.8672 15.8375 18.1384 15.365 18.1384 14.8663C18.1384 14.3675 17.8672 13.895 17.3772 13.5275C16.9922 13.23 16.5109 13.02 15.9422 12.8888C15.5922 12.81 15.3647 12.46 15.4434 12.1013C15.5222 11.7513 15.8722 11.5238 16.2309 11.6025C16.9834 11.7688 17.6397 12.0663 18.1734 12.4775C18.9872 13.09 19.4509 13.9563 19.4509 14.8663C19.4509 15.7763 18.9784 16.6425 18.1647 17.2638C17.6222 17.6838 16.9397 17.99 16.1872 18.1388C16.1347 18.1563 16.0909 18.1563 16.0472 18.1563Z" fill="white"/>
</svg>
