<svg width="21" height="21" viewBox="0 0 21 21" fill="none" xmlns="http://www.w3.org/2000/svg">
<path d="M4.54127 5.58251C4.37502 5.58251 4.20002 5.51251 4.07752 5.39001C3.82377 5.13626 3.82377 4.71626 4.07752 4.46251L7.25377 1.28626C7.50752 1.03251 7.92752 1.03251 8.18127 1.28626C8.43502 1.54001 8.43502 1.96001 8.18127 2.21376L5.00502 5.39001C4.87377 5.51251 4.70752 5.58251 4.54127 5.58251Z" fill="white"/>
<path d="M16.4587 5.58251C16.2925 5.58251 16.1262 5.52126 15.995 5.39001L12.8187 2.21376C12.565 1.96001 12.565 1.54001 12.8187 1.28626C13.0725 1.03251 13.4925 1.03251 13.7462 1.28626L16.9225 4.46251C17.1762 4.71626 17.1762 5.13626 16.9225 5.39001C16.8 5.51251 16.625 5.58251 16.4587 5.58251Z" fill="white"/>
<path d="M17.6838 9.2749C17.6225 9.2749 17.5613 9.2749 17.5 9.2749H17.2987H3.5C2.8875 9.28365 2.1875 9.28365 1.68 8.77615C1.2775 8.3824 1.09375 7.7699 1.09375 6.86865C1.09375 4.4624 2.8525 4.4624 3.6925 4.4624H17.3075C18.1475 4.4624 19.9062 4.4624 19.9062 6.86865C19.9062 7.77865 19.7225 8.3824 19.32 8.77615C18.865 9.23115 18.2525 9.2749 17.6838 9.2749ZM3.6925 7.9624H17.5088C17.9025 7.97115 18.27 7.97115 18.3925 7.84865C18.4538 7.7874 18.585 7.5774 18.585 6.86865C18.585 5.8799 18.34 5.7749 17.2987 5.7749H3.6925C2.65125 5.7749 2.40625 5.8799 2.40625 6.86865C2.40625 7.5774 2.54625 7.7874 2.59875 7.84865C2.72125 7.9624 3.0975 7.9624 3.4825 7.9624H3.6925Z" fill="white"/>
<path d="M8.54004 16.0125C8.18129 16.0125 7.88379 15.715 7.88379 15.3562V12.25C7.88379 11.8912 8.18129 11.5938 8.54004 11.5938C8.89879 11.5938 9.19629 11.8912 9.19629 12.25V15.3562C9.19629 15.7237 8.89879 16.0125 8.54004 16.0125Z" fill="white"/>
<path d="M12.5649 16.0125C12.2062 16.0125 11.9087 15.715 11.9087 15.3562V12.25C11.9087 11.8912 12.2062 11.5938 12.5649 11.5938C12.9237 11.5938 13.2212 11.8912 13.2212 12.25V15.3562C13.2212 15.7237 12.9237 16.0125 12.5649 16.0125Z" fill="white"/>
<path d="M13.0287 19.9062H7.75241C4.61991 19.9062 3.91991 18.0424 3.64866 16.4237L2.41491 8.85491C2.35366 8.49616 2.59866 8.16366 2.95741 8.10241C3.31616 8.04116 3.64866 8.28616 3.70991 8.64491L4.94366 16.2049C5.19741 17.7537 5.72241 18.5937 7.75241 18.5937H13.0287C15.2774 18.5937 15.5312 17.8062 15.8199 16.2837L17.2899 8.62741C17.3599 8.26866 17.7012 8.03241 18.0599 8.11116C18.4187 8.18116 18.6462 8.52241 18.5762 8.88116L17.1062 16.5374C16.7649 18.3137 16.1962 19.9062 13.0287 19.9062Z" fill="white"/>
</svg>
