<svg width="266" height="34" viewBox="0 0 266 34" fill="none" xmlns="http://www.w3.org/2000/svg">
<path d="M261.642 16.3333H248.308V22.9999C248.308 25.4999 249.142 26.3333 251.642 26.3333H258.308C260.808 26.3333 261.642 25.4999 261.642 22.9999V16.3333Z" stroke="#1B3F67" stroke-width="1.5" stroke-miterlimit="10" stroke-linecap="round" stroke-linejoin="round"/>
<path d="M262.917 13.8334V14.6667C262.917 15.5834 262.475 16.3334 261.25 16.3334H248.75C247.475 16.3334 247.083 15.5834 247.083 14.6667V13.8334C247.083 12.9167 247.475 12.1667 248.75 12.1667H261.25C262.475 12.1667 262.917 12.9167 262.917 13.8334Z" stroke="#1B3F67" stroke-width="1.5" stroke-miterlimit="10" stroke-linecap="round" stroke-linejoin="round"/>
<path d="M254.7 12.1666H250.1C249.817 11.8583 249.825 11.3833 250.125 11.0833L251.308 9.89995C251.617 9.59162 252.125 9.59162 252.433 9.89995L254.7 12.1666Z" stroke="#1B3F67" stroke-width="1.5" stroke-miterlimit="10" stroke-linecap="round" stroke-linejoin="round"/>
<path d="M259.892 12.1666H255.292L257.558 9.89995C257.867 9.59162 258.375 9.59162 258.683 9.89995L259.867 11.0833C260.167 11.3833 260.175 11.8583 259.892 12.1666Z" stroke="#1B3F67" stroke-width="1.5" stroke-miterlimit="10" stroke-linecap="round" stroke-linejoin="round"/>
<path d="M252.45 16.3333V20.6166C252.45 21.2833 253.183 21.6749 253.742 21.3166L254.525 20.7999C254.808 20.6166 255.167 20.6166 255.442 20.7999L256.183 21.2999C256.733 21.6666 257.475 21.2749 257.475 20.6083V16.3333H252.45Z" stroke="#1B3F67" stroke-width="1.5" stroke-miterlimit="10" stroke-linecap="round" stroke-linejoin="round"/>
<circle cx="262.5" cy="11.5" r="3" fill="#FF5050" stroke="white"/>
<path d="M1.056 12.06H6.576V12.96H2.016V16.068H6.216V16.968H2.016V21H1.056V12.06ZM7.53338 14.568H8.43338V15.624L8.31338 15.468C8.46538 15.156 8.69338 14.916 8.99738 14.748C9.30938 14.572 9.68538 14.484 10.1254 14.484H10.5334V15.384H9.96938C9.49738 15.384 9.12138 15.532 8.84138 15.828C8.56938 16.116 8.43338 16.52 8.43338 17.04V21H7.53338V14.568ZM14.5161 21.144C13.9241 21.144 13.3841 21 12.8961 20.712C12.4081 20.416 12.0241 20.012 11.7441 19.5C11.4641 18.98 11.3241 18.4 11.3241 17.76C11.3241 17.128 11.4561 16.56 11.7201 16.056C11.9921 15.544 12.3641 15.144 12.8361 14.856C13.3081 14.568 13.8361 14.424 14.4201 14.424C15.0121 14.424 15.5321 14.568 15.9801 14.856C16.4281 15.144 16.7721 15.524 17.0121 15.996C17.2601 16.468 17.3841 16.964 17.3841 17.484C17.3841 17.684 17.3681 17.876 17.3361 18.06H11.9001V17.22H16.8201L16.3881 17.58C16.4521 17.156 16.4001 16.768 16.2321 16.416C16.0721 16.056 15.8281 15.776 15.5001 15.576C15.1721 15.368 14.8121 15.264 14.4201 15.264C14.0201 15.264 13.6481 15.368 13.3041 15.576C12.9601 15.784 12.6921 16.08 12.5001 16.464C12.3161 16.848 12.2441 17.284 12.2841 17.772C12.2441 18.268 12.3241 18.708 12.5241 19.092C12.7241 19.476 13.0001 19.776 13.3521 19.992C13.7121 20.2 14.1001 20.304 14.5161 20.304C14.9561 20.304 15.3361 20.2 15.6561 19.992C15.9841 19.776 16.2601 19.488 16.4841 19.128L17.2521 19.536C17.0441 19.992 16.6921 20.376 16.1961 20.688C15.7081 20.992 15.1481 21.144 14.5161 21.144ZM21.8989 21.144C21.3069 21.144 20.7669 21 20.2789 20.712C19.7909 20.416 19.4069 20.012 19.1269 19.5C18.8469 18.98 18.7069 18.4 18.7069 17.76C18.7069 17.128 18.8389 16.56 19.1029 16.056C19.3749 15.544 19.7469 15.144 20.2189 14.856C20.6909 14.568 21.2189 14.424 21.8029 14.424C22.3949 14.424 22.9149 14.568 23.3629 14.856C23.8109 15.144 24.1549 15.524 24.3949 15.996C24.6429 16.468 24.7669 16.964 24.7669 17.484C24.7669 17.684 24.7509 17.876 24.7189 18.06H19.2829V17.22H24.2029L23.7709 17.58C23.8349 17.156 23.7829 16.768 23.6149 16.416C23.4549 16.056 23.2109 15.776 22.8829 15.576C22.5549 15.368 22.1949 15.264 21.8029 15.264C21.4029 15.264 21.0309 15.368 20.6869 15.576C20.3429 15.784 20.0749 16.08 19.8829 16.464C19.6989 16.848 19.6269 17.284 19.6669 17.772C19.6269 18.268 19.7069 18.708 19.9069 19.092C20.1069 19.476 20.3829 19.776 20.7349 19.992C21.0949 20.2 21.4829 20.304 21.8989 20.304C22.3389 20.304 22.7189 20.2 23.0389 19.992C23.3669 19.776 23.6429 19.488 23.8669 19.128L24.6349 19.536C24.4269 19.992 24.0749 20.376 23.5789 20.688C23.0909 20.992 22.5309 21.144 21.8989 21.144ZM30.8528 21.072C30.2768 21.072 29.8328 20.904 29.5208 20.568C29.2088 20.232 29.0527 19.752 29.0527 19.128V15.468H27.8647V14.568H28.1648C28.4288 14.568 28.6408 14.48 28.8008 14.304C28.9688 14.128 29.0527 13.9 29.0527 13.62V12.96H29.9528V14.568H31.3688V15.468H29.9528V19.128C29.9528 19.48 30.0328 19.752 30.1928 19.944C30.3528 20.136 30.6248 20.232 31.0088 20.232C31.1848 20.232 31.3368 20.22 31.4648 20.196V21.012C31.3048 21.052 31.1008 21.072 30.8528 21.072ZM33.0451 14.568H33.9451V15.624L33.8251 15.468C33.9771 15.156 34.2051 14.916 34.5091 14.748C34.8211 14.572 35.1971 14.484 35.6371 14.484H36.0451V15.384H35.4811C35.0091 15.384 34.6331 15.532 34.3531 15.828C34.0811 16.116 33.9451 16.52 33.9451 17.04V21H33.0451V14.568ZM37.0998 14.568H37.9998V21H37.0998V14.568ZM37.5558 13.464C37.3878 13.464 37.2478 13.408 37.1358 13.296C37.0238 13.184 36.9678 13.044 36.9678 12.876C36.9678 12.708 37.0238 12.568 37.1358 12.456C37.2478 12.344 37.3878 12.288 37.5558 12.288C37.7238 12.288 37.8638 12.344 37.9758 12.456C38.0878 12.568 38.1438 12.708 38.1438 12.876C38.1438 13.044 38.0878 13.184 37.9758 13.296C37.8638 13.408 37.7238 13.464 37.5558 13.464ZM41.7137 21.144C41.3137 21.144 40.9497 21.068 40.6217 20.916C40.3017 20.756 40.0497 20.54 39.8657 20.268C39.6817 19.988 39.5897 19.676 39.5897 19.332C39.5897 18.812 39.7577 18.372 40.0937 18.012C40.4377 17.652 40.9537 17.416 41.6417 17.304L44.1617 16.884V17.7L41.8577 18.084C41.4097 18.156 41.0777 18.3 40.8617 18.516C40.6537 18.724 40.5497 18.984 40.5497 19.296C40.5497 19.584 40.6657 19.828 40.8977 20.028C41.1297 20.228 41.4217 20.328 41.7737 20.328C42.1977 20.328 42.5777 20.236 42.9137 20.052C43.2497 19.868 43.5097 19.616 43.6937 19.296C43.8777 18.968 43.9697 18.608 43.9697 18.216V16.584C43.9697 16.2 43.8297 15.888 43.5497 15.648C43.2697 15.408 42.9057 15.288 42.4577 15.288C42.0737 15.288 41.7337 15.384 41.4377 15.576C41.1417 15.768 40.9177 16.024 40.7657 16.344L39.9497 15.9C40.1337 15.484 40.4617 15.136 40.9337 14.856C41.4137 14.568 41.9217 14.424 42.4577 14.424C42.9217 14.424 43.3377 14.516 43.7057 14.7C44.0737 14.884 44.3577 15.14 44.5577 15.468C44.7657 15.796 44.8697 16.168 44.8697 16.584V21H43.9697V19.716L44.1017 19.848C43.9257 20.224 43.6177 20.536 43.1777 20.784C42.7457 21.024 42.2577 21.144 41.7137 21.144ZM46.7209 11.916H47.6209V21H46.7209V11.916ZM54.4418 21.144C53.8498 21.144 53.3098 21 52.8218 20.712C52.3338 20.416 51.9498 20.012 51.6698 19.5C51.3898 18.98 51.2498 18.4 51.2498 17.76C51.2498 17.128 51.3818 16.56 51.6458 16.056C51.9178 15.544 52.2898 15.144 52.7618 14.856C53.2338 14.568 53.7618 14.424 54.3458 14.424C54.9378 14.424 55.4578 14.568 55.9058 14.856C56.3538 15.144 56.6978 15.524 56.9378 15.996C57.1858 16.468 57.3098 16.964 57.3098 17.484C57.3098 17.684 57.2938 17.876 57.2618 18.06H51.8258V17.22H56.7458L56.3138 17.58C56.3778 17.156 56.3258 16.768 56.1578 16.416C55.9978 16.056 55.7538 15.776 55.4258 15.576C55.0978 15.368 54.7378 15.264 54.3458 15.264C53.9458 15.264 53.5738 15.368 53.2298 15.576C52.8858 15.784 52.6178 16.08 52.4258 16.464C52.2418 16.848 52.1698 17.284 52.2098 17.772C52.1698 18.268 52.2498 18.708 52.4498 19.092C52.6498 19.476 52.9258 19.776 53.2778 19.992C53.6378 20.2 54.0258 20.304 54.4418 20.304C54.8818 20.304 55.2618 20.2 55.5818 19.992C55.9098 19.776 56.1858 19.488 56.4098 19.128L57.1778 19.536C56.9698 19.992 56.6178 20.376 56.1218 20.688C55.6338 20.992 55.0738 21.144 54.4418 21.144ZM58.8967 14.568H59.7967V15.816L59.5927 15.768C59.7527 15.352 60.0127 15.024 60.3727 14.784C60.7407 14.544 61.1647 14.424 61.6447 14.424C62.0927 14.424 62.5007 14.528 62.8687 14.736C63.2367 14.944 63.5247 15.232 63.7327 15.6C63.9487 15.968 64.0567 16.376 64.0567 16.824V21H63.1567V17.172C63.1567 16.788 63.0847 16.46 62.9407 16.188C62.8047 15.908 62.6087 15.696 62.3527 15.552C62.1047 15.4 61.8167 15.324 61.4887 15.324C60.9847 15.324 60.5767 15.492 60.2647 15.828C59.9527 16.156 59.7967 16.604 59.7967 17.172V21H58.8967V14.568ZM68.6796 21.144C68.0796 21.144 67.5396 21 67.0596 20.712C66.5796 20.416 66.1996 20.012 65.9196 19.5C65.6476 18.988 65.5116 18.416 65.5116 17.784C65.5116 17.152 65.6476 16.58 65.9196 16.068C66.1916 15.556 66.5676 15.156 67.0476 14.868C67.5356 14.572 68.0796 14.424 68.6796 14.424C69.2236 14.424 69.7116 14.544 70.1436 14.784C70.5756 15.016 70.9196 15.34 71.1756 15.756L71.0316 16.008V11.916H71.9316V21H71.0316V19.56L71.1756 19.692C70.9516 20.148 70.6196 20.504 70.1796 20.76C69.7396 21.016 69.2396 21.144 68.6796 21.144ZM68.7276 20.244C69.1516 20.244 69.5396 20.136 69.8916 19.92C70.2436 19.704 70.5196 19.408 70.7196 19.032C70.9276 18.656 71.0316 18.24 71.0316 17.784C71.0316 17.328 70.9276 16.912 70.7196 16.536C70.5196 16.16 70.2436 15.864 69.8916 15.648C69.5396 15.432 69.1516 15.324 68.7276 15.324C68.3036 15.324 67.9196 15.432 67.5756 15.648C67.2316 15.864 66.9596 16.16 66.7596 16.536C66.5676 16.904 66.4716 17.32 66.4716 17.784C66.4716 18.248 66.5676 18.668 66.7596 19.044C66.9596 19.412 67.2316 19.704 67.5756 19.92C67.9196 20.136 68.3036 20.244 68.7276 20.244ZM76.0715 21.144C75.4555 21.152 74.9115 21.004 74.4395 20.7C73.9675 20.396 73.6235 19.98 73.4075 19.452L74.1635 19.068C74.3555 19.468 74.6195 19.78 74.9555 20.004C75.2915 20.228 75.6595 20.336 76.0595 20.328C76.4515 20.32 76.7755 20.22 77.0315 20.028C77.2875 19.836 77.4115 19.588 77.4035 19.284C77.3955 18.988 77.2715 18.752 77.0315 18.576C76.7915 18.392 76.5515 18.288 76.3115 18.264L75.3875 18.156C74.8115 18.004 74.3835 17.768 74.1035 17.448C73.8235 17.12 73.6795 16.744 73.6715 16.32C73.6635 15.952 73.7515 15.628 73.9355 15.348C74.1195 15.06 74.3755 14.836 74.7035 14.676C75.0315 14.516 75.3955 14.432 75.7955 14.424C76.3395 14.408 76.8355 14.544 77.2835 14.832C77.7315 15.112 78.0515 15.496 78.2435 15.984L77.4875 16.368C77.3195 16.008 77.0835 15.728 76.7795 15.528C76.4755 15.328 76.1395 15.232 75.7715 15.24C75.4195 15.248 75.1355 15.344 74.9195 15.528C74.7035 15.712 74.5995 15.948 74.6075 16.236C74.6155 16.532 74.7235 16.768 74.9315 16.944C75.1395 17.112 75.3515 17.208 75.5675 17.232L76.6355 17.352C77.1555 17.496 77.5635 17.74 77.8595 18.084C78.1635 18.428 78.3195 18.82 78.3275 19.26C78.3355 19.612 78.2435 19.932 78.0515 20.22C77.8675 20.5 77.5995 20.724 77.2475 20.892C76.9035 21.052 76.5115 21.136 76.0715 21.144ZM81.924 14.568H82.824V21H81.924V14.568ZM82.38 13.464C82.212 13.464 82.072 13.408 81.96 13.296C81.848 13.184 81.792 13.044 81.792 12.876C81.792 12.708 81.848 12.568 81.96 12.456C82.072 12.344 82.212 12.288 82.38 12.288C82.548 12.288 82.688 12.344 82.8 12.456C82.912 12.568 82.968 12.708 82.968 12.876C82.968 13.044 82.912 13.184 82.8 13.296C82.688 13.408 82.548 13.464 82.38 13.464ZM84.6779 14.568H85.5779V15.816L85.3739 15.768C85.5339 15.352 85.7939 15.024 86.1539 14.784C86.5219 14.544 86.9459 14.424 87.4259 14.424C87.8739 14.424 88.2819 14.528 88.6499 14.736C89.0179 14.944 89.3059 15.232 89.5139 15.6C89.7299 15.968 89.8379 16.376 89.8379 16.824V21H88.9379V17.172C88.9379 16.788 88.8659 16.46 88.7219 16.188C88.5859 15.908 88.3899 15.696 88.1339 15.552C87.8859 15.4 87.5979 15.324 87.2699 15.324C86.7659 15.324 86.3579 15.492 86.0459 15.828C85.7339 16.156 85.5779 16.604 85.5779 17.172V21H84.6779V14.568ZM93.3679 20.4L95.8639 17.652L96.2239 17.256C96.7119 16.728 97.0639 16.328 97.2799 16.056C97.5039 15.784 97.6759 15.52 97.7959 15.264C97.9159 15 97.9759 14.72 97.9759 14.424C97.9759 13.896 97.8199 13.488 97.5079 13.2C97.2039 12.904 96.7879 12.756 96.2599 12.756C95.7239 12.756 95.2719 12.908 94.9039 13.212C94.5439 13.516 94.2999 13.94 94.1719 14.484L93.2959 14.292C93.3999 13.812 93.5879 13.392 93.8599 13.032C94.1319 12.672 94.4719 12.396 94.8799 12.204C95.2959 12.012 95.7519 11.916 96.2479 11.916C96.7759 11.916 97.2399 12.024 97.6399 12.24C98.0479 12.448 98.3639 12.744 98.5879 13.128C98.8199 13.512 98.9359 13.944 98.9359 14.424C98.9359 14.752 98.8679 15.072 98.7319 15.384C98.6039 15.688 98.4079 16.012 98.1439 16.356C97.8799 16.692 97.5039 17.128 97.0159 17.664L94.7479 20.16H99.1759V21H93.3679V20.4ZM105.734 21.144C105.134 21.144 104.594 21 104.114 20.712C103.634 20.416 103.254 20.012 102.974 19.5C102.702 18.988 102.566 18.416 102.566 17.784C102.566 17.152 102.702 16.58 102.974 16.068C103.246 15.556 103.622 15.156 104.102 14.868C104.59 14.572 105.134 14.424 105.734 14.424C106.278 14.424 106.766 14.544 107.198 14.784C107.63 15.016 107.974 15.34 108.23 15.756L108.086 16.008V11.916H108.986V21H108.086V19.56L108.23 19.692C108.006 20.148 107.674 20.504 107.234 20.76C106.794 21.016 106.294 21.144 105.734 21.144ZM105.782 20.244C106.206 20.244 106.594 20.136 106.946 19.92C107.298 19.704 107.574 19.408 107.774 19.032C107.982 18.656 108.086 18.24 108.086 17.784C108.086 17.328 107.982 16.912 107.774 16.536C107.574 16.16 107.298 15.864 106.946 15.648C106.594 15.432 106.206 15.324 105.782 15.324C105.358 15.324 104.974 15.432 104.63 15.648C104.286 15.864 104.014 16.16 103.814 16.536C103.622 16.904 103.526 17.32 103.526 17.784C103.526 18.248 103.622 18.668 103.814 19.044C104.014 19.412 104.286 19.704 104.63 19.92C104.974 20.136 105.358 20.244 105.782 20.244ZM112.694 21.144C112.294 21.144 111.93 21.068 111.602 20.916C111.282 20.756 111.03 20.54 110.846 20.268C110.662 19.988 110.57 19.676 110.57 19.332C110.57 18.812 110.738 18.372 111.074 18.012C111.418 17.652 111.934 17.416 112.622 17.304L115.142 16.884V17.7L112.838 18.084C112.39 18.156 112.058 18.3 111.842 18.516C111.634 18.724 111.53 18.984 111.53 19.296C111.53 19.584 111.646 19.828 111.878 20.028C112.11 20.228 112.402 20.328 112.754 20.328C113.178 20.328 113.558 20.236 113.894 20.052C114.23 19.868 114.49 19.616 114.674 19.296C114.858 18.968 114.95 18.608 114.95 18.216V16.584C114.95 16.2 114.81 15.888 114.53 15.648C114.25 15.408 113.886 15.288 113.438 15.288C113.054 15.288 112.714 15.384 112.418 15.576C112.122 15.768 111.898 16.024 111.746 16.344L110.93 15.9C111.114 15.484 111.442 15.136 111.914 14.856C112.394 14.568 112.902 14.424 113.438 14.424C113.902 14.424 114.318 14.516 114.686 14.7C115.054 14.884 115.338 15.14 115.538 15.468C115.746 15.796 115.85 16.168 115.85 16.584V21H114.95V19.716L115.082 19.848C114.906 20.224 114.598 20.536 114.158 20.784C113.726 21.024 113.238 21.144 112.694 21.144ZM119.657 20.592L119.633 21.384L116.909 14.556H117.881L120.113 20.196H119.861L122.081 14.556H123.077L119.489 23.4H118.481L119.657 20.592ZM126.427 21.144C125.811 21.152 125.267 21.004 124.795 20.7C124.323 20.396 123.979 19.98 123.763 19.452L124.519 19.068C124.711 19.468 124.975 19.78 125.311 20.004C125.647 20.228 126.015 20.336 126.415 20.328C126.807 20.32 127.131 20.22 127.387 20.028C127.643 19.836 127.767 19.588 127.759 19.284C127.751 18.988 127.627 18.752 127.387 18.576C127.147 18.392 126.907 18.288 126.667 18.264L125.743 18.156C125.167 18.004 124.739 17.768 124.459 17.448C124.179 17.12 124.035 16.744 124.027 16.32C124.019 15.952 124.107 15.628 124.291 15.348C124.475 15.06 124.731 14.836 125.059 14.676C125.387 14.516 125.751 14.432 126.151 14.424C126.695 14.408 127.191 14.544 127.639 14.832C128.087 15.112 128.407 15.496 128.599 15.984L127.843 16.368C127.675 16.008 127.439 15.728 127.135 15.528C126.831 15.328 126.495 15.232 126.127 15.24C125.775 15.248 125.491 15.344 125.275 15.528C125.059 15.712 124.955 15.948 124.963 16.236C124.971 16.532 125.079 16.768 125.287 16.944C125.495 17.112 125.707 17.208 125.923 17.232L126.991 17.352C127.511 17.496 127.919 17.74 128.215 18.084C128.519 18.428 128.675 18.82 128.683 19.26C128.691 19.612 128.599 19.932 128.407 20.22C128.223 20.5 127.955 20.724 127.603 20.892C127.259 21.052 126.867 21.136 126.427 21.144Z" fill="black" fill-opacity="0.6"/>
<rect x="137" y="2" width="88" height="32" rx="5" fill="#F29A2E" fill-opacity="0.1"/>
<path d="M168.984 13.06H172.752C173.28 13.06 173.74 13.156 174.132 13.348C174.524 13.54 174.824 13.812 175.032 14.164C175.248 14.516 175.356 14.928 175.356 15.4C175.356 15.856 175.24 16.264 175.008 16.624C174.776 16.976 174.444 17.244 174.012 17.428L174 16.984C174.56 17.192 174.984 17.504 175.272 17.92C175.568 18.336 175.716 18.812 175.716 19.348C175.716 20.172 175.452 20.82 174.924 21.292C174.396 21.764 173.676 22 172.764 22H168.984V13.06ZM172.812 20.92C173.332 20.92 173.748 20.78 174.06 20.5C174.372 20.22 174.528 19.84 174.528 19.36C174.528 18.888 174.372 18.508 174.06 18.22C173.748 17.932 173.332 17.788 172.812 17.788H170.172V20.92H172.812ZM172.728 16.732C173.16 16.732 173.508 16.608 173.772 16.36C174.036 16.104 174.168 15.78 174.168 15.388C174.168 14.988 174.036 14.68 173.772 14.464C173.516 14.24 173.168 14.128 172.728 14.128H170.172V16.732H172.728ZM179.465 22.144C179.001 22.144 178.581 22.036 178.205 21.82C177.837 21.604 177.549 21.3 177.341 20.908C177.133 20.516 177.029 20.072 177.029 19.576V15.532H178.157V19.456C178.157 19.936 178.301 20.324 178.589 20.62C178.877 20.916 179.253 21.064 179.717 21.064C180.181 21.064 180.557 20.912 180.845 20.608C181.133 20.296 181.277 19.88 181.277 19.36V15.532H182.405V22H181.313V20.74L181.481 20.848C181.329 21.256 181.073 21.576 180.713 21.808C180.361 22.032 179.945 22.144 179.465 22.144ZM186.15 21.508V22.48L183.39 15.532H184.602L186.75 21.052H186.39L188.526 15.532H189.762L186.186 24.4H184.95L186.15 21.508ZM192.949 13.06H196.117C196.709 13.06 197.229 13.172 197.677 13.396C198.133 13.62 198.485 13.944 198.733 14.368C198.981 14.784 199.105 15.272 199.105 15.832C199.105 16.384 198.977 16.868 198.721 17.284C198.473 17.7 198.125 18.02 197.677 18.244C197.229 18.468 196.709 18.58 196.117 18.58H194.137V22H192.949V13.06ZM196.153 17.5C196.505 17.5 196.813 17.432 197.077 17.296C197.341 17.16 197.545 16.964 197.689 16.708C197.841 16.452 197.917 16.156 197.917 15.82C197.917 15.484 197.841 15.188 197.689 14.932C197.545 14.676 197.341 14.48 197.077 14.344C196.813 14.208 196.505 14.14 196.153 14.14H194.137V17.5H196.153ZM200.551 12.916H201.679V22H200.551V12.916ZM205.295 22.144C204.879 22.144 204.503 22.068 204.167 21.916C203.839 21.756 203.583 21.54 203.399 21.268C203.215 20.988 203.123 20.668 203.123 20.308C203.123 19.78 203.299 19.336 203.651 18.976C204.003 18.616 204.535 18.38 205.247 18.268L207.635 17.872V18.808L205.499 19.18C205.091 19.244 204.791 19.372 204.599 19.564C204.407 19.748 204.311 19.984 204.311 20.272C204.311 20.536 204.415 20.756 204.623 20.932C204.839 21.108 205.107 21.196 205.427 21.196C205.819 21.196 206.167 21.112 206.471 20.944C206.783 20.776 207.023 20.544 207.191 20.248C207.359 19.944 207.443 19.616 207.443 19.264V17.608C207.443 17.256 207.311 16.972 207.047 16.756C206.791 16.532 206.455 16.42 206.039 16.42C205.671 16.42 205.347 16.516 205.067 16.708C204.787 16.892 204.575 17.14 204.431 17.452L203.459 16.948C203.643 16.5 203.979 16.128 204.467 15.832C204.955 15.536 205.487 15.388 206.063 15.388C206.551 15.388 206.983 15.484 207.359 15.676C207.743 15.86 208.039 16.124 208.247 16.468C208.463 16.804 208.571 17.184 208.571 17.608V22H207.479V20.776L207.683 20.86C207.475 21.252 207.159 21.564 206.735 21.796C206.311 22.028 205.831 22.144 205.295 22.144ZM210.29 15.532H211.394V16.792L211.214 16.684C211.374 16.276 211.63 15.96 211.982 15.736C212.342 15.504 212.762 15.388 213.242 15.388C213.698 15.388 214.11 15.492 214.478 15.7C214.846 15.908 215.134 16.2 215.342 16.576C215.558 16.944 215.666 17.356 215.666 17.812V22H214.538V18.172C214.538 17.82 214.474 17.52 214.346 17.272C214.218 17.016 214.034 16.82 213.794 16.684C213.562 16.548 213.294 16.48 212.99 16.48C212.526 16.48 212.146 16.632 211.85 16.936C211.562 17.24 211.418 17.652 211.418 18.172V22H210.29V15.532Z" fill="#FF8C00"/>
<g clip-path="url(#clip0_338_3795)">
<path d="M151.353 14.6721L155.111 9.00171L159.103 14.6721L155.111 17.7909L151.353 14.6721Z" fill="#FF8C00"/>
<path d="M147 11.4658L148.035 20.3201H158.92L147 11.4658Z" fill="#FEC400"/>
<path d="M163 11.6675L161.989 20.3199H151.352L163 11.6675Z" fill="#EDA500"/>
<path d="M161.856 21.0635H148.236V24.0002H161.856V21.0635Z" fill="#FF8C00"/>
</g>
<defs>
<clipPath id="clip0_338_3795">
<rect width="16" height="15" fill="white" transform="translate(147 9)"/>
</clipPath>
</defs>
</svg>
