<svg xmlns="http://www.w3.org/2000/svg" width="24" height="24" viewBox="0 0 24 24" fill="none">
  <g clip-path="url(#clip0_456_4520)">
    <path d="M8.79995 0C5.70741 0 3.19995 2.50508 3.19995 5.59687C3.19995 8.68866 5.70741 11.1937 8.79995 11.1937C11.8925 11.1937 14.4 8.68866 14.4 5.59687C14.4 2.50508 11.8925 0 8.79995 0Z" fill="current"/>
    <path d="M5.6 14.3906C2.50738 14.3906 0 16.8968 0 19.9898V23.9854H17.6V19.9898C17.6 16.8968 15.0926 14.3906 12 14.3906H5.6Z" fill="current"/>
    <path d="M20 16H19.2V24H24V20C24 17.7909 22.2091 16 20 16Z" fill="current"/>
    <path d="M18.3999 6.3999C16.1908 6.3999 14.3999 8.19076 14.3999 10.3999C14.3999 12.609 16.1908 14.3999 18.3999 14.3999C20.609 14.3999 22.3999 12.609 22.3999 10.3999C22.3999 8.19076 20.609 6.3999 18.3999 6.3999Z" fill="current"/>
  </g>
  <defs>
    <clipPath id="clip0_456_4520">
      <rect width="24" height="24" fill="current"/>
    </clipPath>
  </defs>
</svg>