<svg xmlns="http://www.w3.org/2000/svg" width="22" height="24" viewBox="0 0 22 24" fill="none">
  <path fill-rule="evenodd" clip-rule="evenodd" d="M5.4001 0H16.6001V1.6H21.4001V21.6C21.4001 22.9255 20.3256 24 19.0001 24H3.0001C1.67461 24 0.600098 22.9255 0.600098 21.6V1.6H5.4001V0ZM7.0001 1.6H15.0001V4C15.0001 4.44183 14.6419 4.8 14.2001 4.8H7.8001C7.35827 4.8 7.0001 4.44183 7.0001 4V1.6ZM9.88352 8.84961H4.65014V10.3496H9.88352V8.84961ZM17.3501 13.6496H4.65014V15.1496H17.3501V13.6496ZM17.3501 18.4496H12.1168V19.9496H17.3501V18.4496Z" fill="current"/>
</svg>