<svg xmlns="http://www.w3.org/2000/svg" width="24" height="24" viewBox="0 0 24 24" fill="none">
  <g clip-path="url(#clip0_456_4534)">
    <path d="M9.61255 12.0001C9.61255 10.6746 10.6816 9.6001 12.0003 9.6001C13.319 9.6001 14.3881 10.6746 14.3881 12.0001C14.3881 13.3256 13.319 14.4001 12.0003 14.4001C10.6816 14.4001 9.61255 13.3256 9.61255 12.0001Z" fill="current"/>
    <path fill-rule="evenodd" clip-rule="evenodd" d="M23.1429 12.0002C23.8818 11.7031 23.8816 11.7027 23.8815 11.7024L23.8802 11.6991L23.8774 11.6922L23.8682 11.6699C23.8605 11.6513 23.8496 11.6252 23.8354 11.5923C23.807 11.5264 23.7654 11.4327 23.7104 11.3153C23.6003 11.0806 23.4358 10.7501 23.2134 10.3558C22.7697 9.56866 22.0907 8.5182 21.1477 7.46502C19.2605 5.35743 16.2756 3.2002 12 3.2002C7.72435 3.2002 4.73947 5.35743 2.85233 7.46502C1.90932 8.5182 1.23032 9.56867 0.786564 10.3558C0.564239 10.7501 0.39972 11.0806 0.289641 11.3153C0.234571 11.4327 0.193037 11.5264 0.164625 11.5923C0.150417 11.6252 0.139482 11.6513 0.131769 11.6699L0.122608 11.6922L0.119826 11.6991L0.118882 11.7015C0.118733 11.7018 0.118236 11.7031 0.857223 12.0002L0.118236 11.7031L0 12.0002L0.118236 12.2973L0.857223 12.0002C0.118236 12.2973 0.118087 12.2969 0.118236 12.2973L0.118882 12.2989L0.119826 12.3013L0.122608 12.3082L0.131769 12.3305C0.139482 12.3491 0.150417 12.3752 0.164625 12.4081C0.193037 12.474 0.234571 12.5677 0.289641 12.6851C0.39972 12.9198 0.564239 13.2502 0.786564 13.6446C1.23032 14.4317 1.90932 15.4822 2.85233 16.5354C4.73947 18.643 7.72435 20.8002 12 20.8002C16.2756 20.8002 19.2605 18.643 21.1477 16.5354C22.0907 15.4822 22.7697 14.4317 23.2134 13.6446C23.4358 13.2503 23.6003 12.9198 23.7104 12.6851C23.7654 12.5677 23.807 12.474 23.8354 12.4081C23.8496 12.3752 23.8605 12.3491 23.8682 12.3305L23.8774 12.3082L23.8802 12.3013L23.8811 12.2989C23.8813 12.2986 23.8818 12.2972 23.1429 12.0002L23.8818 12.2973L24 12.0002L23.8815 11.7024L23.1429 12.0002ZM12.0001 8.0002C9.80224 8.0002 8.02053 9.79106 8.02053 12.0002C8.02053 14.2093 9.80224 16.0002 12.0001 16.0002C14.198 16.0002 15.9797 14.2093 15.9797 12.0002C15.9797 9.79106 14.198 8.0002 12.0001 8.0002Z" fill="current"/>
  </g>
  <defs>
    <clipPath id="clip0_456_4534">
      <rect width="24" height="24" fill="current"/>
    </clipPath>
  </defs>
</svg>